<?xml version="1.0" encoding="utf-8"?>
<!-- Generator: Adobe Illustrator 17.0.0, SVG Export Plug-In . SVG Version: 6.00 Build 0)  -->
<!DOCTYPE svg PUBLIC "-//W3C//DTD SVG 1.1//EN" "http://www.w3.org/Graphics/SVG/1.1/DTD/svg11.dtd">
<svg version="1.1" xmlns="http://www.w3.org/2000/svg" xmlns:xlink="http://www.w3.org/1999/xlink" x="0px" y="0px" width="72px"
	 height="24px" viewBox="0 0 72 24" enable-background="new 0 0 72 24" xml:space="preserve">
<g id="Base">
</g>
<g id="Art">
	<path id="Facebook_2_" fill="#FFFFFF" d="M12.734,19.567V12.67h2.483l0.372-2.688h-2.855V8.266c0-0.778,0.232-1.308,1.429-1.308
		l1.527-0.001V4.553c-0.264-0.033-1.17-0.106-2.225-0.106C11.264,4.447,9.757,5.7,9.757,8v1.982h-2.49v2.688h2.49v6.897H12.734z"/>
	<path id="LinkedIn_1_" fill="#FFFFFF" d="M43.477,13.641v5.59h-3.241v-5.215c0-1.31-0.469-2.204-1.642-2.204
		c-0.895,0-1.428,0.602-1.663,1.185c-0.085,0.208-0.107,0.498-0.107,0.79v5.444h-3.241c0,0,0.044-8.833,0-9.749h3.241v1.382
		c-0.007,0.01-0.015,0.022-0.021,0.032h0.021v-0.032c0.431-0.663,1.2-1.611,2.921-1.611C41.878,9.254,43.477,10.647,43.477,13.641z
		 M30.192,4.783c-1.109,0-1.835,0.728-1.835,1.684c0,0.936,0.705,1.685,1.791,1.685h0.022c1.13,0,1.833-0.75,1.833-1.685
		C31.982,5.511,31.301,4.783,30.192,4.783z M28.55,19.231h3.241V9.482H28.55V19.231z"/>
	<path id="Yelp_1_" fill="#FFFFFF" d="M56.262,5.267c0.763-0.599,2.229-0.771,2.832-0.654c0.604,0.116,0.919,0.454,0.923,0.865
		l0.035,5.243c0.003,0.412-0.211,0.79-0.475,0.841c-0.266,0.05-0.657-0.195-0.872-0.545l-2.751-4.496
		C55.74,6.17,55.31,6.016,56.262,5.267z M55.348,15.237l2.77-0.98c0.386-0.137,0.732-0.518,0.771-0.849
		c0.037-0.331-0.243-0.724-0.624-0.874l-2.925-1.16c-0.381-0.151-0.82,0.206-0.936,0.791c0,0-0.07,2.034,0,2.456
		C54.474,15.041,54.962,15.374,55.348,15.237z M60.18,15.727c0.008-0.413-0.212-0.769-0.49-0.795
		c-0.278-0.026-0.718,0.211-0.982,0.526l-1.932,2.317c-0.263,0.315-0.132,1.054,0.251,1.194l2.02,0.702
		c0.385,0.14,1.062-0.274,1.07-0.686L60.18,15.727z M64.982,15.188l-2.423-0.697c-0.393-0.113-0.839-0.102-0.99,0.026
		c-0.151,0.126-0.113,0.526,0.084,0.886l1.529,2.798c0.197,0.36,0.988,0.298,1.206-0.051c0,0,0.922-1.36,1.091-1.869
		C65.65,15.77,65.374,15.3,64.982,15.188z M65.572,11.253c-0.109-0.354-0.867-1.398-1.277-1.753
		c-0.41-0.356-0.879-0.312-1.143,0.001l-1.561,1.86c-0.265,0.313-0.335,0.809-0.159,1.101c0.176,0.292,0.646,0.457,1.045,0.368
		l2.7-0.501C65.666,12.212,65.683,11.607,65.572,11.253z"/>
</g>
<g id="Guides">
</g>
</svg>
